<svg xmlns="http://www.w3.org/2000/svg" height="123.04" width="516.032"><path d="M328.667 122.667H318c-.333-.334-.667-.334-1-.334-7.667-.666-14.667-3-21.333-6.333-12-6.667-21.667-16.333-27.667-28.667-5.667-12.333-7-25-4.333-38.333 2-12 8-22.333 16.666-31 8-8 17.667-13.667 29-16.333 2.667-.334 5.334-.667 8-1.334h12.334c.333 0 1 .334 1.333.334 7.667.666 15 3 21.667 6.666 9 4.667 16.333 11.334 22.333 20C383.333 40 386 54 384.333 69 383 83 377 95 367 104.667c-7.667 7.666-16.667 13-27 15.666-3.667 1-7.667 1.667-11.333 2.334zM276 45c-4.667 15.333-3.667 30 5.667 43 11.666 17.667 28.666 25.667 49.666 22.667 16-2.334 27.667-11.667 36.667-25-8-3.334-15.667-6.667-23-10.334-.333.667-.333.667-.333 1-2.334 7.334-7.667 11-14.667 12.334-1.667.333-2.333 1-2 2.666v7h-7.333V89c-7-.333-13.334-2.667-18.667-7.333 3-3 6-5.667 8.667-8.334 3 2.667 6.333 4.667 10.666 5C324 79 326.667 79 329 77.667c2-1 3-3 3-5-.333-2.334-1.333-3.667-3.333-4.334-1.334-.666-2.667-1.333-4.334-2-13-5.666-26.333-11.666-39.666-17.666C282 47.333 279 46.333 276 45zm67.333-5c-2.333 2.333-5 4.667-7.666 7-.334.333-1 0-1.334 0-2.666-1.667-5.666-3-8.666-3-2.334 0-4.334.667-6.334 1.333-1.333.334-2 2-2 3.334 0 1.666 1.334 1.666 2.334 2.333 15.666 7 31.666 14 47.333 21 1.667 1 3.333 1.667 5 2.333 6.333-23.666-4.667-50-30.333-59.666C317 5 293.333 16 282 34.333l23 10c3-7 8.667-10 15.667-10.666v-9.334H327c.667 0 1 .334 1 1v6.334c0 1.666.333 2 1.667 2 5 .666 9.333 2.333 13.666 6.333zM66.667.333c3.666.667 7 1 10.333 2 10.333 2.667 19.333 8 27 15.334 4 3.666 7.333 8 10 12.666 5 9 7.667 18.334 8 28.667.333 10.667-1.333 21-6.333 30.333-2.667 5.334-6 10-10.334 14.334-4.666 5-10.333 9-16.666 12.333-6.667 3.333-14 5.667-21.667 6.333-.333 0-.667 0-.667.334H55.667c-.334-.334-.667-.334-1-.334-7.667-.666-15-3-22-6.666C20.333 109 11 99.333 5 86.333c-5-11-6.333-23-4.333-35 2-13 8-24 17-33.333C26.333 9.667 36.333 4 48 1.333c2.333-.333 4.667-.666 6.667-1h12zm-5.667 111c24 0 50.333-19.333 50-49.666 0-28-22-50-49.667-50.334-29.666-.333-50.666 25-50.666 50 .333 27.334 23 50 50.333 50zM449.333 122.667c-2.666-.667-5.333-1-8.333-1.667-16.333-3.667-29-13-38-27.333-11.667-18.667-12.333-38.334-3.333-58.334C405 23 414.333 14 425.667 7.667c6.666-4 14-6 21.666-7 .667 0 1-.334 1.334-.334H461c.333 0 .667.334 1 .334C478 2.333 490.667 9.333 501.333 21c7.667 8.667 12 18.667 14 29.667.334 1.666.334 3.333.667 4.666v12.334c0 .333-.333 1-.333 1.333-.667 6.667-2.334 12.667-5 18.667-3 6.666-7.334 12-12.334 17-7.666 7.666-16.666 13-27 15.666-3.666 1-7.666 1.667-11.333 2.334h-10.667zM505 61.333c.667-27-22.667-50-49.667-50-28.666-.333-50.333 25-50.666 50 0 26 23 50 50.333 50 26 0 50.667-21.666 50-50zM198.333.333c2.667.667 5.334 1 8.334 1.334C218 4.333 227.667 10 236 18.333 245.333 27.667 251.333 39 252.667 52c1.666 13 .666 25.333-5.334 37.333-3.666 7-9 13.334-15 18.334-9.666 8.333-21 13.333-34 14.666-.333 0-.666 0-1 .334h-10.666c-2.667-.667-5.667-1-8.334-1.667-16.666-4-29.333-13.667-38.666-28-6.667-10.667-9-22.333-8.334-34.667.334-15.666 6.667-29 17.334-40C159 8 171 2 185.333.667c.334 0 .334-.334.667-.334h12.333zm-6 11c-28.666-.333-50 24.667-50.333 50 0 26 23 50.334 50.333 50 25.667 0 50.334-21.333 50.334-50-.334-27-22.667-50.333-50.334-50z" fill="#fff"/><path d="M53 67c2.333 1.333 5 2.333 7.333 3.667C59 73.333 57 75.333 54.667 77.333c-6 4.667-21 5-26.334-6-3-6-3.333-12.666-.333-19 2-5 6-8.333 11.667-9.666 3.333-.667 6.666-.334 10 .333 5 1 8 4 10.666 8.333-2.666 1.334-5 2.667-7.666 3.667-.334.333-1-.333-1.334-.667-2-3-4.666-4.333-8-3.666-2 .666-3.666 1.666-4.666 3.666-2 4.334-2 9 0 13.667 1 2.667 3.333 4 6 4 3.333.333 5.666-1 7.333-3.667.333-.333.667-.666.667-1L53 67zM96 70.667c-2.667 4.333-6 7.333-10.333 9-4.334 1.333-8.667 1-13-.334-4.667-1.666-8-5-9.667-9.666-2-5-2-10-.667-15 2.334-8.334 9.667-13 19-12.334 5.667.334 10 2.667 13.334 7.334.333.333.666 1 1 1.666-2.667 1.334-5.334 2.667-8 4.334-.334-.667-.667-1-1-1.667-1.667-2.333-4-3.667-7-3.333-3 .333-5.334 1.666-6.334 4.666C72 59.667 72 63.667 73.667 67.667 75 70.333 77 72 80 72c3.333.333 5.667-1 7.333-3.667.334-.333.334-.666 1-1.333 2.334 1 5 2.333 7.667 3.667zM427.333 71H442c.333 0 .667.667 1 1 .333 6.667 4.667 9.333 10.667 10 8.666 1 14-4 16-12.333C471 64 471 58 469.333 52.333 468 48 465.667 44 461 42.667c-4-1-8-1-12 .666-3.667 1.667-5.667 5-6 9.334h4c-4.333 4-8 8-12 11.666-3.667-3.666-7.667-7.333-11.667-11.666H425c2.667 0 2.667 0 3-2.334 2-8.666 7-15.333 15.333-19 7-3 14.334-3 21.667-.666 11.667 3.666 18.333 12 20.333 24 1.334 7 1.334 13.666-1.333 20.333-5.333 14-17.667 21.333-32.667 19.667-13.333-1.334-22.333-10-24-22.334V71zM208.667 71.333H202V101h-19.333V71.333h-7v-2-22c0-3.666 1.333-5 5-5h24c2.666 0 4.333 1.334 4.333 4v24.334s-.333.333-.333.666zM200.667 31.667c0 2-.334 5-3.667 6.333-3.333 1.667-7 1.667-10.333-.333-3.334-2.667-3.334-6.334-2.667-10 .667-3.334 2.667-5 6-5.667 1.333-.333 3-.333 4.333 0 4.334.667 6.334 3.333 6.334 9.667z" fill="#fff"/></svg>
