<svg xmlns="http://www.w3.org/2000/svg" width="659" height="472.459"><path d="M380.878 57.825c-7.159 1.14-12.32 7.605-18.75 10-3.737.19-7.509-1.65-11.125-1-2.431 2.077-3.389 6.326-7.406 6-6.448.898-14.382-.094-18.875 5.657-10.17 7.084-23.533 5.125-34.844 9.28-12.3 2.88-25.357 1.516-37.968 2.595-5.062.175-12.69.938-13.25 7.375-.44 11.95 2.122 23.847 2.437 35.812.26 10.9 2.102 22.017.438 32.844-2.537 8.037-6.277 16.548-3.625 25.094 3.61 15.846 8.57 31.504 12.187 47.312.585 6.493 1.458 14.626-4.031 19.375-2.147 3.991 1.766 8.245 2.344 12.219 3.632 9.978 7.038 20.035 9.718 30.312-2.304-5.203-2.631-11.42-5.718-16.218-3.172-.897-3.171 4.287-4.313 6.187-2.47 8.679-3.457 17.844-2.969 26.906h-6.812v116h26.625v38.657h197.5V358.2h-39.344c1.362-1.08 2.583-2.354 3.594-3.937 1.547-.213 3.534 1.935 5.5 1.156 10.134-2.622 19.485-11.317 19.875-22.25 1.452-11.384.44-23.213 2.219-34.531 2.32-8.81 6.534-17.332 5.562-26.656.15-19.996 1.741-40.586-4.969-59.782-5.155-20.018-8.266-41.147-17.968-59.625-2.89-6.12-10.988-5.547-15.969-2.53-5.74 3.192-11.71 7.666-14.125 13.905 1.257 2.993 4.335-.83 5.906-1.843 3.97-3.531 10.055-5.577 15.219-3.97-.258.002-.475.117-.75.22-.91 1.436.353 3.22.375 4.75.516 1.63-.165 4.333 1.875 5.03.435.074.854.024 1.219-.093-4.172 3.522-9.143 5.643-14.313 7.063 1.168-.348 2.21-1.581 1.25-2.72-1.66-1.892-3.485-3.63-5.094-5.562-.411-.332-.904-.711-1.468-.625-2.192.884-3.696 2.997-5.157 4.782-1.196 1.019-.694 2.479.5 3.187 2.87 1.499 6.306 1.48 9.438 1.031.167-.009.332-.045.5-.093-3.147.862-6.359 1.481-9.531 1.968-.937 1.702-3.888-2.886-5.438-3.937-2.239-2.258-5.327-5.344-3.125-8.719 6.403-11.85 15.148-24.863 29.313-28.031 2.65-.275 3.956-2.875 2.187-4.969-9.213-20.213-18.68-40.435-29.406-59.875-4.499-6.399-11.18-13.249-19.438-13.719zm47.47 100.438c.724.255 1.417.59 2.093 1 2.197 1.646 3.322 4.753 2.031 7 .486-1.106.516-2.466-.062-3.469-.877-1.86-2.43-3.323-4.063-4.531zm-55.47 10.094c5.106 18.44 5.08 12.772-3.28 14.25-16.603.074-33.344-.157-49.845 1.437-11.352 1.96-20.837 8.924-29.218 16.469 4.551-9.193 8.944-19.729 18.843-24.406 5.245-3.765 12.22-1.386 18.282-2.282 13.766-.758 27.912.373 41.375-2.843 1.634-.117 3.23-2.68 3.843-2.625zm-33.343 20.937c3.688.251 10.037-.294 10.906 4.469.06 1.4.71 3.964-.969 2.031-3.287.17-5.69 3.404-9.031 3.969-10.261 3.35-20.748 7.257-31.688 7.062-2.033-.353-4.885-.462-6.156-2.312 9.27-9.739 23.7-14.68 36.938-15.219zm1.875.219c-1.204.129-2.198 1.12-2.25 2.375-.217 2.275-.183 4.607-.094 6.875.342 1.391 1.918.56 2.688.031 2.334-1.3 5.348-2.689 5.843-5.625.125-2.303-2.39-3.606-4.406-3.625-.418-.03-.863-.045-1.281-.031a2.223 2.223 0 0 0-.5 0zm-22.594 6.094c-3.124.768-5.99 2.344-8.781 3.906-1.586 1.071-3.494 2.145-4.188 4.031-.335 1.757 1.719 2.502 3.094 2.688 4.653.604 9.505-.267 13.75-2.22 1.236-.6 1.182-2.208.437-3.187-1.03-1.711-1.857-3.638-3.343-5-.283-.19-.633-.25-.969-.218zm-122.375 17.875a17.6 17.6 0 0 0-1.344.062c-9.861.611-17.921 10.137-16.562 20-1.047 13.482 7.305 25.207 15.531 35 8.922 10.592 21.901 16.12 32.344 24.781 4.471 4.454 11.102 3.41 16.625 2.063 4.609-3.14 5.142-9.605 6.125-14.688 1.255-9.643-4.703-18.229-9.063-26.28-9.79-14.282-21.913-26.775-34.625-38.376-2.652-1.751-5.857-2.57-9.031-2.562zm1.156 7.5c2.593.007 5.496 1.771 5.875 4.218-.555 1.104-3.905 3.078-1.656.938 1.688-4.05-4.429-5.365-7.313-4.625-6.829 1.541-8.291 9.96-8.343 15.937.674 12.152 9.381 22.087 18.062 29.875 1.39 1.308 7.078 5.091 2.813 2.25-11.861-8.197-22.944-21.462-21.313-36.718.74-5.736 3.917-12.602 10.781-11.782.35-.074.724-.094 1.094-.093zm228.344 1.468c1.95 2.352 4.763 3.273 7.344 4.625-2.322-.984-5.196.138-5.25 2.97-.722 7.06-6.47 12.788-13.469 13.905-1.22.251-1.879.37-2.125.407.38-.138 2.485-.738 3.937-1.282 5.662-1.431 9.474-6.448 10.094-12.156.868-2.728.435-6.546-.531-8.469zm-50.594 8.532c-.305 4.599-2.92 11.123 1.469 14.53 6.039 1.984 12.51-.44 18.281-1.937 1.753.408 5.404 1.744 5.844 1.688-7.108-.431-14.107 1.482-21.063 1.5-5.088-.23-6.251-5.952-6.625-10.063.11-3.098-3.512-2.831-4.562-.562-1.699 2.127-3.345 4.926-.938 1 1.108-2.332 3.264-3.197 5.594-3.469 1.088-.305 1.95-2.695 2-2.687zm-159.094 8.75c1.392.07 3.13 2.913.97 1.25-1.79-.597-3.729-.037-5.376.718 1.296-.79 2.616-1.673 4.125-1.937a.99.99 0 0 1 .281-.031zm222.72 5.125c2.99.136 8.29-.441 8.374 3.906.333 3.704.363 8.364-.125 11.594-4.695-4.924-12.31-1.588-17.906-.47-22.53 5.824-45.01 14.182-62.938 29.438-2.996 2.332-5.523 7.259-7.156 9.22-.703-6.185-2.051-13.024-.594-19.188 4.57-5.843 11.578-9.31 17.344-13.875 10.438-7.33 21.606-14.2 34.344-16.344 9.446-2.124 19.02-3.975 28.656-4.281zm-218.688 2.28c.894 4.254 2.757 11.078 8.468 9.938 1.487.012 4.514-1.894 3.97.907 1.379 6.999-3.416 13.482-9.688 15.968-1.778.94-4.114.796-6.157.344 3.833.575 7.807-.866 10.594-3.781 3.934-2.433 7-8.363 3.25-12.25-2.917-.795-6.684-.255-8.375-3.531-1.482-2.125-2.258-5.643-2.062-7.594zm216.406 21.22c1.835.04-.054 3.08-.188 4.093-2.055 8.19.35 18.519-7.218 24.344-7.415 6.842-18.286 8.48-27.938 6.438-8.509-1.557-17.31-1.39-25.625-3.5-1.028-1.351 1.905-3.532 2.563-4.688 7.548-7.426 18.535-9.835 27.781-14.625 10.043-3.964 19.754-9.499 30.187-12.031.158-.026.316-.034.438-.031zm-225 3.968c.049.018.221.115.625.344.013.012-.007.023 0 .031-.174-.075-.735-.414-.625-.375zm213.125 1.282c-3.442.746-6.39 2.882-9.625 4.218-7.216 3.326-14.534 6.52-22.156 8.688-1.55.232-2.505 2.35-.938 3.25 3.315 1.733 7.294 1.027 10.906 1.062 6.634-.13 13.186-2.048 18.97-5.28 3.716-2.1 5.388-6.747 4.655-10.813a1.717 1.717 0 0 0-1.812-1.125zm2.625 16.187c-6.443 1.091-12.41 4.355-18.938 5.375-5.602 1.296-11.622 1.38-16.875 3.844-1.447 2.223 2.307 2.388 3.657 2.5 9.241.73 19.178 1.707 27.875-2.156 3.37-1.858 7.698-3.563 9.343-7.282.08-2.496-3.394-2.248-5.062-2.28zm9.469 35.25c-.01.038-.77.614-.875.719-7.49 6.239-17.39 7.098-26.844 8.5 9.613-1.564 19.404-3.242 27.437-9.031.215-.143.285-.2.282-.188zm-73.563 16.25c2.233 6.004 4.905 12.55 9.656 16.906h-11.5c.04-.149.074-.32.094-.5.92-5.419 1.034-11.025 1.75-16.406z" fill="#fff"/><path d="M0 446.605V420.75l6.75-5.985c10.186-9.031 23.756-17.722 41.705-26.709 33.955-17 59.078-26.813 123.045-48.057 52.322-17.378 66.71-22.824 69.85-26.44.766-.88 1.632-4.42 1.927-7.865.627-7.325-.229-8.235-7.743-8.235-5.618 0-10.22-1.856-13.534-5.46-1.375-1.496-6.265-4.816-10.867-7.38-13.11-7.302-22.867-17.641-29.926-31.712-3.66-7.297-6.48-16.574-5.674-18.672.322-.84-.116-4.237-.974-7.547-.857-3.31-1.559-7.081-1.559-8.381 0-1.3-1.126-4.478-2.501-7.063-2.684-5.04-4.039-10.3-5.496-21.331-1.111-8.412-3.538-23.826-4.402-27.954-.345-1.65-1.066-5.025-1.602-7.5-2.532-11.685-2.86-17.452-1.863-32.753.865-13.28 1.397-16.49 3.397-20.484 1.304-2.606 2.683-6.43 3.063-8.5 1.259-6.858 10.658-21.45 19.224-29.848 1.276-1.25 3.076-4.225 4-6.61 2.554-6.59 19.124-20.844 28.492-24.51 2.303-.9 6.036-2.888 8.294-4.415 6.2-4.195 30.81-14.893 34.2-14.867 3.002.022 16.6-3.152 19.694-4.597 3.039-1.42 18.023-4.816 29-6.573 8.75-1.4 35.649-1.769 45.5-.623 12.072 1.403 21.561 6.638 27.206 15.01.938 1.39 4.088 3.876 7 5.521 6.816 3.853 14.306 11.9 17.246 18.53 1.273 2.87 3.316 6.119 4.54 7.219 3.653 3.28 8.56 11.332 13.975 22.93 7.725 16.542 10.824 27.27 13.12 45.406.533 4.215 1.391 10.986 1.907 15.047.516 4.06 1.373 8.786 1.903 10.5.53 1.714 1.271 5.537 1.645 8.496.375 2.958 2.443 10.608 4.596 17 5.018 14.894 6.434 20.397 8.898 34.586 1.106 6.368 2.869 13.757 3.918 16.419 3.186 8.082 3.995 15.644 4.133 38.616.132 21.99.13 22.006-3.217 34.5-3.075 11.477-3.335 13.58-3.175 25.693.095 7.256.637 14.059 1.203 15.116 1.313 2.454 6.106 4.026 92.102 30.202 81.156 24.703 92.18 28.388 106.75 35.678l3.25 1.626v73.685H530.441c-70.707 0-128.362-.338-128.12-.75 2.049-3.501 13.575-34.293 13.653-36.474.048-1.335-5.42-3.563-23.506-9.577C373.014 419.189 360 416.84 360 419.8c0 .85 2.385 4.382 5.299 7.851 2.914 3.469 6.23 7.657 7.367 9.307 2.312 3.355 18.334 33.797 18.334 34.836 0 .365-9.03.664-20.067.664-18.646 0-20.03-.124-19.543-1.75.289-.963 1.469-5.32 2.622-9.683 1.152-4.363 2.304-8.27 2.56-8.683.255-.413.849-2.814 1.32-5.335.76-4.067.683-4.442-.684-3.317-1.332 1.097-1.456.93-.916-1.232l.623-2.5-10.902.337c-7.943.245-12.42-.104-16.492-1.288-3.074-.894-5.981-1.383-6.46-1.087-2.032 1.256-.362 22.551 2.572 32.788.462 1.61-.673 1.75-14.182 1.75h-14.684l.63-2.25c.347-1.238 1.345-5.85 2.22-10.25 1.941-9.779 4.12-15.454 13.807-35.962 6.593-13.96 7.378-16.204 6.254-17.896-.707-1.065-8.897-6.482-18.2-12.039-13.62-8.134-18.748-11.857-26.312-19.103-22.805-21.844-31.123-36.193-31.158-53.75-.008-4.134-1.431-5.032-2.378-1.5-1.108 4.136-.639 23.152.784 31.75 1.455 8.792 6.124 23.149 10.08 31 2.971 5.895 12.797 29.941 17.157 41.989 3.134 8.66 9.92 24.511 17.452 40.764 1.593 3.439 2.897 6.476 2.897 6.75 0 .273-65.25.497-145 .497H0v-25.854zm357.516-10.156c3.505-2.166 3.678-2.514 3.167-6.39-.428-3.254-1.431-4.873-4.861-7.845-2.772-2.403-5.218-3.69-6.822-3.59-1.375.085-7-.175-12.5-.577-10.333-.755-13.419.015-14.12 3.524-1.935 9.689-1.409 11.27 4.82 14.492 7.528 3.892 24.297 4.106 30.316.386zm6.972-27.86c7.681-3.43 12.512-8.915 12.512-14.205 0-1.924.375-2.098 3.25-1.506 20.288 4.174 38.867 4.711 48.988 1.417 8.22-2.675 8.207-3.524-.022-1.392-12.43 3.221-37.1.433-47.95-5.42-6.523-3.519-14.295-12.487-17.53-20.231-1.862-4.457-2.346-4.847-9.101-7.351-14.781-5.478-16.46-7.31-3.113-3.396 3.838 1.126 7.54 2.138 8.229 2.25.914.15 1.368-2.712 1.688-10.65.24-5.97.646-11.064.901-11.32.256-.255 1.443 2.154 2.64 5.355 4.379 11.72 6.954 15.306 12.988 18.085 4.947 2.278 6.785 2.546 17.37 2.536 14.86-.014 26.416-2.525 27.749-6.03.475-1.25 1.325-2.272 1.888-2.272.564 0 1.04-.788 1.057-1.75.03-1.667.095-1.667 1.36 0 2.192 2.888 6.797 2.117 13.163-2.203 9.48-6.434 11.273-11.761 11.297-33.558.009-8.267.5-16.285 1.094-17.846.593-1.56 2.197-6.818 3.566-11.685 2.333-8.297 2.486-10.305 2.453-32.154-.036-23.746-.84-31.01-4.34-39.233-.92-2.16-2.597-9.096-3.728-15.413-3.003-16.772-10.907-41.946-15.252-48.577-3.95-6.028-14.917-3.217-23.707 6.078-5.255 5.556-6.16 8.76-1.178 4.171 5.27-4.855 7.508-5.83 13.374-5.83 5.139 0 5.941.3 8.308 3.114 3.15 3.743 2.737 6.219-1.68 10.095-3.954 3.469-14.72 7.79-19.407 7.79h-3.625l2.85 2.242c2.22 1.747 4.471 2.324 10.194 2.613 6.796.343 7.734.136 12.536-2.771l5.19-3.142-3.5 3.014c-5.988 5.159-12.708 6.206-22.069 3.44-4.182-1.236-6.753-2.923-11.181-7.34-3.575-3.566-5.75-6.58-5.75-7.97 0-3.256 7.176-15.023 13.145-21.553 5.646-6.178 10.794-9.285 17.199-10.378 2.286-.39 3.984-1.147 3.774-1.682-.35-.89-7.01-14.673-23.665-48.972-7.212-14.85-11.314-20.172-18.413-23.884-6.47-3.383-8.91-3.297-13.653.482-2.138 1.703-5.81 4.228-8.162 5.61-4.24 2.491-5.138 2.544-12.457.74-2.31-.57-2.881-.28-3.702 1.878-1.38 3.629-3.975 4.669-11.75 4.71-7.43.038-10.04 1.052-13.252 5.147-1.542 1.967-3.632 2.989-7.834 3.83a688.647 688.647 0 0 0-9.923 2.067c-2.306.506-5.777.92-7.713.92s-5.9.99-8.807 2.2c-4.76 1.98-7.18 2.215-24.287 2.349-20.582.161-24.323.805-26.28 4.52-1.317 2.5-1.255 4.37.624 18.93 1.712 13.266 3.277 49.111 2.294 52.53-.48 1.665-1.831 4.91-3.005 7.21-2.72 5.333-2.822 13.934-.244 20.76 1.038 2.75 2.395 7.7 3.015 11 1.182 6.297 3.956 16.706 7.27 27.283 3.346 10.677 1.902 22.502-3.074 25.164-1.805.967-1.631 1.705 3.41 14.443 2.922 7.384 6.074 16.73 7.004 20.768 3.598 15.62 5.89 20.852 12.224 27.896 2.607 2.9 3.795 4.767 2.639 4.149-5.576-2.985-13.527-16.224-16.336-27.202-.633-2.475-1.874-6.746-2.757-9.491l-1.605-4.99-2.435 6.99c-5.197 14.922-3.995 38.554 2.567 50.49 10.364 18.851 30.982 39.315 48.544 48.18 11.42 5.765 22.79 13.744 23.945 16.804.968 2.564 1.783 3.008 7.146 3.887 3.33.546 11.004.878 17.054.739 8.837-.203 11.98-.69 15.988-2.48zm33.945-72.022c1.285-2.079 5.687-3.325 14.567-4.122 9.126-.82 17.23-3.772 23.514-8.565 3.654-2.787 5.793-2.7 3.436.14-2.048 2.467-9.047 6.98-12.95 8.35-1.925.675-8.45 1.829-14.5 2.564-6.05.735-11.861 1.68-12.914 2.1-1.388.555-1.705.426-1.153-.467zm3.067-32.151c-3.3-.435-8.25-1.093-11-1.464s-7.475-.825-10.5-1.008c-6.622-.402-7.4-1.961-3.518-7.05 2.814-3.69 9.024-7.186 22.018-12.399 4.4-1.764 12.95-5.489 19-8.275 19.879-9.156 23.835-9.513 20.31-1.832-1.455 3.17-1.874 5.59-1.473 8.513 1.367 9.972-4.368 18.181-15.652 22.403-6.005 2.247-9.169 2.43-19.185 1.112zm22.266-6.426c2.855-1.554 5.925-3.638 6.824-4.63 1.533-1.694 1.467-1.849-1.065-2.484-1.812-.455-4.23.017-7.362 1.435-4.8 2.174-16.598 5.144-20.475 5.154-1.203.003-3.988.556-6.188 1.23l-4 1.224 6 .659c12.107 1.328 20.61.49 26.266-2.588zm-8.222-10.633c7.204-2.696 9.402-4.683 10.117-9.148.722-4.507.083-4.626-6.358-1.183-6.405 3.424-20.007 9.017-24.053 9.89-4.532.979-4.053 2.347 1 2.857 6.519.657 13.373-.201 19.294-2.416zm-57.438 11.358c-.645-1.558-1.27-6.575-1.39-11.148l-.216-8.314 4.873-4.42c5.35-4.855 25.083-18.181 32.459-21.922 6.58-3.338 29.936-8.597 40.888-9.207 7.515-.42 9.688-.208 11.75 1.143 2.375 1.556 2.53 2.174 2.53 10.076 0 8.303-1.203 11.847-2.401 7.073-1.11-4.419-7.497-4.426-21.099-.024-2.2.712-8.05 2.527-13 4.034-4.95 1.507-10.575 3.513-12.5 4.46-1.925.945-7.443 3.614-12.263 5.93-12.582 6.047-22.606 13.846-25.847 20.109l-2.61 5.044-1.174-2.834zM346 273.89c0-.568 2.913-5.45 6.473-10.85 3.56-5.4 7.415-12.352 8.566-15.449 4.076-10.959 8.68-16.659 11.868-14.689 1.091.675 3.05-7.748 3.195-13.741l.102-4.201 1.072 3.351c.784 2.453.742 4.999-.157 9.5-2.357 11.792-2.435 14.19-.527 16.098 2.182 2.182 10.213 1.792 15.292-.741 2.967-1.48 3.573-1.501 5.45-.187 4.977 3.487 21.387.191 25.578-5.136 1.081-1.375 2.266-4.964 2.648-8.02.592-4.737.386-5.947-1.434-8.409-1.17-1.581-2.126-3.129-2.126-3.439 0-1.293 4.972 2.82 5.528 4.572.371 1.169 1.522 1.91 2.963 1.91 1.296 0 4.402 1.563 6.902 3.471 2.5 1.91 7.206 4.813 10.457 6.454 4.377 2.21 6.083 3.675 6.579 5.648.367 1.465.421 2.91.12 3.213-.302.301-.549-.123-.549-.944 0-2.007-3.717-5.21-8-6.892-1.925-.757-5.447-2.855-7.827-4.662-2.38-1.808-5.417-3.287-6.75-3.287-2.066 0-2.424.478-2.427 3.25-.004 3.83-2.913 8.994-6.326 11.23-5.441 3.566-17.28 5.84-23.337 4.483-3.546-.795-5.785-.659-10.383.631-10.283 2.885-16.405.021-16.405-7.674 0-7.362-3.626-4.381-8.99 7.391-1.943 4.262-5.102 10.098-7.022 12.969C349.8 269.808 346 274.913 346 273.889zm-10.482-56.067c8.82-5.842 14.403-13.22 14.46-19.113.022-2.298-1.38-3.027-2.46-1.279-1.441 2.332-16.36 7.35-29.88 10.051-6.767 1.352-13.89.584-15.787-1.702-1.127-1.357-.781-2.041 2.436-4.822 8.432-7.29 23.255-12.882 34.277-12.934 10.562-.05 13.44 1.603 13.426 7.709-.019 8.182-6.025 17.154-15.108 22.57-5.114 3.049-6.145 2.686-1.364-.48zM319.1 204.31c4.445-1.501 4.322-1.258 2.282-4.514-.978-1.56-1.84-2.952-1.918-3.092-.394-.714-7.384 2.404-10.267 4.58-2.443 1.844-2.964 2.707-2 3.318 1.878 1.192 7.954 1.043 11.903-.292zm27.312-10.484c.759-1.978-.92-3.33-4.163-3.352-1.963-.013-2.25.498-2.25 4.01v4.026l2.879-1.488c1.583-.82 3.173-2.257 3.534-3.196zm-57.928 8.633c1.374-4.419 7.684-16.39 10.57-20.051 1.539-1.953 5.194-4.878 8.121-6.5l5.324-2.95 26-.54c21.187-.44 26.694-.848 29.75-2.199 2.299-1.016 3.762-2.355 3.782-3.459.03-1.704.108-1.7 1.447.067 3.516 4.643 5.742 25.052 3.451 31.632-.71 2.036-.804 1.758-.512-1.5.541-6.032-1.295-12.503-3.82-13.463-1.17-.444-4.82-.365-8.112.176-3.292.542-12.158.725-19.702.406-25.627-1.081-37.147 2.242-50.249 14.496-5.367 5.02-6.66 5.85-6.05 3.885zm-46.148 92.062c2.743-1.043 4.189-4.503 5.661-13.552.871-5.351.704-6.365-2.199-13.337-5.332-12.81-12.568-22.56-29.928-40.325-10.672-10.922-11.689-11.698-16.228-12.379-13.254-1.987-21.563 7.131-20.455 22.45 1.07 14.804 17.833 37.268 33.31 44.64 2.751 1.31 7.843 4.87 11.316 7.911 5.806 5.086 6.705 5.53 11.185 5.53 2.679 0 5.981-.422 7.338-.938zm-26.337-19c-10.18-3.115-22.822-14.428-28.365-25.382-3.664-7.242-4.552-15.992-2.237-22.051 2.188-5.731 4.573-7.76 9.811-8.345 3.371-.376 4.88-.014 7.041 1.691 1.513 1.194 2.75 2.587 2.75 3.098 0 2.157-4.14 4.923-7.25 4.846l-3.25-.081 2.505-1.17c4.719-2.201 5.197-2.72 3.921-4.257-1.347-1.623-6.21-1.865-8.871-.44-2.37 1.268-5.056 8.08-5.05 12.8.01 5.697 1.635 10.368 5.86 16.835 7.765 11.883 18.886 20.36 26.746 20.384 4.18.013 13.036-7.936 11.9-10.68-.412-.996-.77-2.405-.797-3.133-.029-.808-.8-1.126-1.981-.817-5.192 1.357-9.733-4.144-9.733-11.791 0-4.037-.282-4.602-2.58-5.179-1.771-.444-3.419-.038-5.25 1.295-4.978 3.623-5.496 3.793-4.206 1.382 1.319-2.464 6.73-6.058 9.131-6.063 2.718-.006 4.74 3.274 5.487 8.9 1.077 8.121 4.16 10.368 10.53 7.67 1.294-.548 1.722.153 2.18 3.569.794 5.916-1.228 10.058-6.963 14.265-4.889 3.586-6.813 4.037-11.329 2.655zm201-102.005c0-.52-.822-1.532-1.827-2.25-1.005-.719-2.264-2.101-2.798-3.072-.882-1.603-1.242-1.484-3.906 1.297-2.45 2.557-2.689 3.217-1.451 4 1.937 1.225 9.982 1.245 9.982.025zm14.794-8.69c.162-1.088-.696-2.853-1.907-3.922l-2.201-1.945.643 2.5c.354 1.375.65 3.325.657 4.333.018 2.415 2.429 1.585 2.808-.967z"/></svg>
