<svg width="454" height="143" xmlns="http://www.w3.org/2000/svg"><path d="M137.44 79.51l-18.825-18.825-12.01 4.003 8.006-8.007-.013-.013 27.336-27.336a5.83 5.83 0 0 0 0-8.243l-18.72-18.72a5.832 5.832 0 0 0-8.243 0L64.794 52.547a5.83 5.83 0 0 0 0 8.243l22.84 22.841L60.3 110.967a5.83 5.83 0 0 0 0 8.243l18.72 18.72a5.827 5.827 0 0 0 8.243 0l50.177-50.177a5.83 5.83 0 0 0 0-8.243" fill="#595959"/><path d="M74.526 79.51L55.694 60.677l-12.026 4.01 8.017-8.019L79.02 29.332a5.828 5.828 0 0 0-.001-8.243L60.3 2.37A5.815 5.815 0 0 0 56.178.662c-1.491 0-2.983.57-4.121 1.707L1.88 52.546a5.83 5.83 0 0 0 0 8.243l45.684 45.684a5.809 5.809 0 0 0 4.12 1.707 5.811 5.811 0 0 0 4.123-1.707l18.719-18.72a5.83 5.83 0 0 0 0-8.243M204.848 21.09l-18.72-18.72a5.832 5.832 0 0 0-8.243 0l-50.177 50.176a5.831 5.831 0 0 0 0 8.243l22.842 22.843-27.335 27.335a5.827 5.827 0 0 0 0 8.243l18.72 18.72a5.809 5.809 0 0 0 4.122 1.707 5.809 5.809 0 0 0 4.122-1.707l50.176-50.177a5.83 5.83 0 0 0 0-8.243l-18.833-18.832-12.026 4.009 8.018-8.019 27.334-27.336a5.828 5.828 0 0 0 0-8.242" fill="#595959"/><path d="M263.268 79.51l-45.683-45.683a5.81 5.81 0 0 0-4.12-1.707 5.811 5.811 0 0 0-4.123 1.707l-18.719 18.72a5.83 5.83 0 0 0 0 8.242l22.84 22.843-.022.023 7.986 7.986-11.979-3.993-23.32 23.32a5.831 5.831 0 0 0 0 8.243l18.721 18.72a5.803 5.803 0 0 0 4.121 1.706 5.805 5.805 0 0 0 4.121-1.707l50.177-50.177a5.83 5.83 0 0 0 0-8.243M452.01 79.511l-18.72-18.72a5.828 5.828 0 0 0-8.244-.002L397.71 88.125l-8.018 8.018 4.01-12.027-23.326-23.325a5.815 5.815 0 0 0-4.122-1.707c-1.492 0-2.983.57-4.12 1.707l-18.722 18.72a5.832 5.832 0 0 0 0 8.243l27.335 27.335-17.012 17.013a5.828 5.828 0 0 0 4.121 9.95h37.442a5.828 5.828 0 0 0 4.122-1.708l52.59-52.59a5.83 5.83 0 0 0 0-8.243" fill="#0FF"/><path d="M359.346 115.09a5.827 5.827 0 0 0-1.707-4.12l-50.177-50.178a5.827 5.827 0 0 0-8.242 0l-50.177 50.177a5.828 5.828 0 0 0 0 8.243l18.72 18.72a5.827 5.827 0 0 0 8.243 0l19.318-19.32 16.034-16.034-4.009 12.026 23.327 23.328a5.807 5.807 0 0 0 4.121 1.707 5.811 5.811 0 0 0 4.122-1.708l18.72-18.72a5.827 5.827 0 0 0 1.707-4.12" fill="#0FF"/></svg>
