<svg xmlns="http://www.w3.org/2000/svg" width="300" height="300"><path shape-rendering="optimizeSpeed" fill="#fff" d="M0 0h300v300H0z"/><path shape-rendering="optimizeSpeed" d="M18 18h8v8h-8zM26 18h8v8h-8zM34 18h8v8h-8zM42 18h8v8h-8zM50 18h8v8h-8zM58 18h8v8h-8zM66 18h8v8h-8zM90 18h8v8h-8zM138 18h8v8h-8zM146 18h8v8h-8zM154 18h8v8h-8zM162 18h8v8h-8zM170 18h8v8h-8zM178 18h8v8h-8zM202 18h8v8h-8zM226 18h8v8h-8zM234 18h8v8h-8zM242 18h8v8h-8zM250 18h8v8h-8zM258 18h8v8h-8zM266 18h8v8h-8zM274 18h8v8h-8zM18 26h8v8h-8zM66 26h8v8h-8zM82 26h8v8h-8zM90 26h8v8h-8zM106 26h8v8h-8zM114 26h8v8h-8zM178 26h8v8h-8zM194 26h8v8h-8zM226 26h8v8h-8zM274 26h8v8h-8zM18 34h8v8h-8zM34 34h8v8h-8zM42 34h8v8h-8zM50 34h8v8h-8zM66 34h8v8h-8zM90 34h8v8h-8zM98 34h8v8h-8zM106 34h8v8h-8zM130 34h8v8h-8zM146 34h8v8h-8zM162 34h8v8h-8zM186 34h8v8h-8zM194 34h8v8h-8zM210 34h8v8h-8zM226 34h8v8h-8zM242 34h8v8h-8zM250 34h8v8h-8zM258 34h8v8h-8zM274 34h8v8h-8zM18 42h8v8h-8zM34 42h8v8h-8zM42 42h8v8h-8zM50 42h8v8h-8zM66 42h8v8h-8zM82 42h8v8h-8zM90 42h8v8h-8zM106 42h8v8h-8zM154 42h8v8h-8zM202 42h8v8h-8zM210 42h8v8h-8zM226 42h8v8h-8zM242 42h8v8h-8zM250 42h8v8h-8zM258 42h8v8h-8zM274 42h8v8h-8zM18 50h8v8h-8zM34 50h8v8h-8zM42 50h8v8h-8zM50 50h8v8h-8zM66 50h8v8h-8zM98 50h8v8h-8zM114 50h8v8h-8zM122 50h8v8h-8zM130 50h8v8h-8zM138 50h8v8h-8zM154 50h8v8h-8zM162 50h8v8h-8zM170 50h8v8h-8zM178 50h8v8h-8zM202 50h8v8h-8zM226 50h8v8h-8zM242 50h8v8h-8zM250 50h8v8h-8zM258 50h8v8h-8zM274 50h8v8h-8zM18 58h8v8h-8zM66 58h8v8h-8zM82 58h8v8h-8zM98 58h8v8h-8zM122 58h8v8h-8zM130 58h8v8h-8zM138 58h8v8h-8zM146 58h8v8h-8zM154 58h8v8h-8zM162 58h8v8h-8zM194 58h8v8h-8zM210 58h8v8h-8zM226 58h8v8h-8zM274 58h8v8h-8zM18 66h8v8h-8zM26 66h8v8h-8zM34 66h8v8h-8zM42 66h8v8h-8zM50 66h8v8h-8zM58 66h8v8h-8zM66 66h8v8h-8zM82 66h8v8h-8zM98 66h8v8h-8zM114 66h8v8h-8zM130 66h8v8h-8zM146 66h8v8h-8zM162 66h8v8h-8zM178 66h8v8h-8zM194 66h8v8h-8zM210 66h8v8h-8zM226 66h8v8h-8zM234 66h8v8h-8zM242 66h8v8h-8zM250 66h8v8h-8zM258 66h8v8h-8zM266 66h8v8h-8zM274 66h8v8h-8zM114 74h8v8h-8zM122 74h8v8h-8zM146 74h8v8h-8zM178 74h8v8h-8zM186 74h8v8h-8zM194 74h8v8h-8zM202 74h8v8h-8zM18 82h8v8h-8zM26 82h8v8h-8zM34 82h8v8h-8zM42 82h8v8h-8zM50 82h8v8h-8zM66 82h8v8h-8zM74 82h8v8h-8zM82 82h8v8h-8zM90 82h8v8h-8zM98 82h8v8h-8zM114 82h8v8h-8zM130 82h8v8h-8zM154 82h8v8h-8zM162 82h8v8h-8zM178 82h8v8h-8zM194 82h8v8h-8zM202 82h8v8h-8zM210 82h8v8h-8zM218 82h8v8h-8zM234 82h8v8h-8zM250 82h8v8h-8zM266 82h8v8h-8zM26 90h8v8h-8zM42 90h8v8h-8zM90 90h8v8h-8zM154 90h8v8h-8zM162 90h8v8h-8zM170 90h8v8h-8zM178 90h8v8h-8zM186 90h8v8h-8zM202 90h8v8h-8zM210 90h8v8h-8zM218 90h8v8h-8zM226 90h8v8h-8zM234 90h8v8h-8zM258 90h8v8h-8zM266 90h8v8h-8zM274 90h8v8h-8zM18 98h8v8h-8zM26 98h8v8h-8zM34 98h8v8h-8zM42 98h8v8h-8zM58 98h8v8h-8zM66 98h8v8h-8zM74 98h8v8h-8zM90 98h8v8h-8zM106 98h8v8h-8zM114 98h8v8h-8zM138 98h8v8h-8zM146 98h8v8h-8zM154 98h8v8h-8zM178 98h8v8h-8zM210 98h8v8h-8zM218 98h8v8h-8zM234 98h8v8h-8zM242 98h8v8h-8zM250 98h8v8h-8zM266 98h8v8h-8zM42 106h8v8h-8zM50 106h8v8h-8zM90 106h8v8h-8zM98 106h8v8h-8zM106 106h8v8h-8zM130 106h8v8h-8zM138 106h8v8h-8zM178 106h8v8h-8zM186 106h8v8h-8zM194 106h8v8h-8zM202 106h8v8h-8zM210 106h8v8h-8zM218 106h8v8h-8zM234 106h8v8h-8zM258 106h8v8h-8zM18 114h8v8h-8zM26 114h8v8h-8zM66 114h8v8h-8zM90 114h8v8h-8zM106 114h8v8h-8zM146 114h8v8h-8zM154 114h8v8h-8zM170 114h8v8h-8zM194 114h8v8h-8zM210 114h8v8h-8zM242 114h8v8h-8zM250 114h8v8h-8zM18 122h8v8h-8zM26 122h8v8h-8zM50 122h8v8h-8zM58 122h8v8h-8zM74 122h8v8h-8zM82 122h8v8h-8zM90 122h8v8h-8zM98 122h8v8h-8zM114 122h8v8h-8zM122 122h8v8h-8zM130 122h8v8h-8zM162 122h8v8h-8zM170 122h8v8h-8zM186 122h8v8h-8zM194 122h8v8h-8zM202 122h8v8h-8zM218 122h8v8h-8zM226 122h8v8h-8zM234 122h8v8h-8zM266 122h8v8h-8zM274 122h8v8h-8zM18 130h8v8h-8zM26 130h8v8h-8zM42 130h8v8h-8zM50 130h8v8h-8zM58 130h8v8h-8zM66 130h8v8h-8zM90 130h8v8h-8zM98 130h8v8h-8zM122 130h8v8h-8zM130 130h8v8h-8zM138 130h8v8h-8zM146 130h8v8h-8zM154 130h8v8h-8zM162 130h8v8h-8zM178 130h8v8h-8zM234 130h8v8h-8zM266 130h8v8h-8zM18 138h8v8h-8zM34 138h8v8h-8zM42 138h8v8h-8zM50 138h8v8h-8zM82 138h8v8h-8zM90 138h8v8h-8zM98 138h8v8h-8zM114 138h8v8h-8zM122 138h8v8h-8zM138 138h8v8h-8zM186 138h8v8h-8zM194 138h8v8h-8zM258 138h8v8h-8zM18 146h8v8h-8zM34 146h8v8h-8zM42 146h8v8h-8zM50 146h8v8h-8zM66 146h8v8h-8zM74 146h8v8h-8zM114 146h8v8h-8zM130 146h8v8h-8zM138 146h8v8h-8zM146 146h8v8h-8zM154 146h8v8h-8zM170 146h8v8h-8zM194 146h8v8h-8zM242 146h8v8h-8zM266 146h8v8h-8zM26 154h8v8h-8zM34 154h8v8h-8zM42 154h8v8h-8zM82 154h8v8h-8zM90 154h8v8h-8zM98 154h8v8h-8zM170 154h8v8h-8zM178 154h8v8h-8zM186 154h8v8h-8zM194 154h8v8h-8zM202 154h8v8h-8zM218 154h8v8h-8zM226 154h8v8h-8zM250 154h8v8h-8zM266 154h8v8h-8zM274 154h8v8h-8zM26 162h8v8h-8zM34 162h8v8h-8zM42 162h8v8h-8zM50 162h8v8h-8zM58 162h8v8h-8zM66 162h8v8h-8zM74 162h8v8h-8zM106 162h8v8h-8zM114 162h8v8h-8zM138 162h8v8h-8zM154 162h8v8h-8zM162 162h8v8h-8zM210 162h8v8h-8zM234 162h8v8h-8zM242 162h8v8h-8zM250 162h8v8h-8zM266 162h8v8h-8zM18 170h8v8h-8zM26 170h8v8h-8zM34 170h8v8h-8zM82 170h8v8h-8zM90 170h8v8h-8zM98 170h8v8h-8zM106 170h8v8h-8zM130 170h8v8h-8zM138 170h8v8h-8zM170 170h8v8h-8zM178 170h8v8h-8zM186 170h8v8h-8zM194 170h8v8h-8zM210 170h8v8h-8zM218 170h8v8h-8zM234 170h8v8h-8zM258 170h8v8h-8zM18 178h8v8h-8zM26 178h8v8h-8zM42 178h8v8h-8zM50 178h8v8h-8zM58 178h8v8h-8zM66 178h8v8h-8zM82 178h8v8h-8zM98 178h8v8h-8zM106 178h8v8h-8zM138 178h8v8h-8zM146 178h8v8h-8zM154 178h8v8h-8zM170 178h8v8h-8zM202 178h8v8h-8zM210 178h8v8h-8zM242 178h8v8h-8zM266 178h8v8h-8zM18 186h8v8h-8zM26 186h8v8h-8zM82 186h8v8h-8zM90 186h8v8h-8zM98 186h8v8h-8zM114 186h8v8h-8zM122 186h8v8h-8zM130 186h8v8h-8zM170 186h8v8h-8zM178 186h8v8h-8zM202 186h8v8h-8zM226 186h8v8h-8zM250 186h8v8h-8zM266 186h8v8h-8zM274 186h8v8h-8zM18 194h8v8h-8zM42 194h8v8h-8zM50 194h8v8h-8zM58 194h8v8h-8zM66 194h8v8h-8zM82 194h8v8h-8zM90 194h8v8h-8zM98 194h8v8h-8zM122 194h8v8h-8zM130 194h8v8h-8zM138 194h8v8h-8zM154 194h8v8h-8zM162 194h8v8h-8zM178 194h8v8h-8zM186 194h8v8h-8zM194 194h8v8h-8zM210 194h8v8h-8zM218 194h8v8h-8zM226 194h8v8h-8zM250 194h8v8h-8zM266 194h8v8h-8zM18 202h8v8h-8zM34 202h8v8h-8zM90 202h8v8h-8zM114 202h8v8h-8zM122 202h8v8h-8zM186 202h8v8h-8zM194 202h8v8h-8zM226 202h8v8h-8zM234 202h8v8h-8zM250 202h8v8h-8zM258 202h8v8h-8zM18 210h8v8h-8zM34 210h8v8h-8zM50 210h8v8h-8zM66 210h8v8h-8zM74 210h8v8h-8zM98 210h8v8h-8zM114 210h8v8h-8zM130 210h8v8h-8zM138 210h8v8h-8zM146 210h8v8h-8zM154 210h8v8h-8zM170 210h8v8h-8zM194 210h8v8h-8zM210 210h8v8h-8zM218 210h8v8h-8zM226 210h8v8h-8zM234 210h8v8h-8zM242 210h8v8h-8zM274 210h8v8h-8zM82 218h8v8h-8zM162 218h8v8h-8zM170 218h8v8h-8zM178 218h8v8h-8zM202 218h8v8h-8zM210 218h8v8h-8zM242 218h8v8h-8zM250 218h8v8h-8zM274 218h8v8h-8zM18 226h8v8h-8zM26 226h8v8h-8zM34 226h8v8h-8zM42 226h8v8h-8zM50 226h8v8h-8zM58 226h8v8h-8zM66 226h8v8h-8zM82 226h8v8h-8zM98 226h8v8h-8zM106 226h8v8h-8zM114 226h8v8h-8zM138 226h8v8h-8zM146 226h8v8h-8zM186 226h8v8h-8zM202 226h8v8h-8zM210 226h8v8h-8zM226 226h8v8h-8zM242 226h8v8h-8zM250 226h8v8h-8zM258 226h8v8h-8zM266 226h8v8h-8zM18 234h8v8h-8zM66 234h8v8h-8zM90 234h8v8h-8zM106 234h8v8h-8zM130 234h8v8h-8zM138 234h8v8h-8zM146 234h8v8h-8zM162 234h8v8h-8zM178 234h8v8h-8zM186 234h8v8h-8zM202 234h8v8h-8zM210 234h8v8h-8zM242 234h8v8h-8zM250 234h8v8h-8zM258 234h8v8h-8zM274 234h8v8h-8zM18 242h8v8h-8zM34 242h8v8h-8zM42 242h8v8h-8zM50 242h8v8h-8zM66 242h8v8h-8zM82 242h8v8h-8zM90 242h8v8h-8zM98 242h8v8h-8zM106 242h8v8h-8zM154 242h8v8h-8zM194 242h8v8h-8zM210 242h8v8h-8zM218 242h8v8h-8zM226 242h8v8h-8zM234 242h8v8h-8zM242 242h8v8h-8zM274 242h8v8h-8zM18 250h8v8h-8zM34 250h8v8h-8zM42 250h8v8h-8zM50 250h8v8h-8zM66 250h8v8h-8zM82 250h8v8h-8zM90 250h8v8h-8zM114 250h8v8h-8zM122 250h8v8h-8zM130 250h8v8h-8zM162 250h8v8h-8zM170 250h8v8h-8zM178 250h8v8h-8zM202 250h8v8h-8zM210 250h8v8h-8zM218 250h8v8h-8zM234 250h8v8h-8zM242 250h8v8h-8zM258 250h8v8h-8zM266 250h8v8h-8zM274 250h8v8h-8zM18 258h8v8h-8zM34 258h8v8h-8zM42 258h8v8h-8zM50 258h8v8h-8zM66 258h8v8h-8zM82 258h8v8h-8zM90 258h8v8h-8zM98 258h8v8h-8zM122 258h8v8h-8zM130 258h8v8h-8zM138 258h8v8h-8zM146 258h8v8h-8zM162 258h8v8h-8zM178 258h8v8h-8zM194 258h8v8h-8zM226 258h8v8h-8zM250 258h8v8h-8zM258 258h8v8h-8zM18 266h8v8h-8zM66 266h8v8h-8zM82 266h8v8h-8zM98 266h8v8h-8zM114 266h8v8h-8zM122 266h8v8h-8zM138 266h8v8h-8zM178 266h8v8h-8zM186 266h8v8h-8zM194 266h8v8h-8zM218 266h8v8h-8zM234 266h8v8h-8zM250 266h8v8h-8zM258 266h8v8h-8zM18 274h8v8h-8zM26 274h8v8h-8zM34 274h8v8h-8zM42 274h8v8h-8zM50 274h8v8h-8zM58 274h8v8h-8zM66 274h8v8h-8zM82 274h8v8h-8zM114 274h8v8h-8zM130 274h8v8h-8zM146 274h8v8h-8zM154 274h8v8h-8zM178 274h8v8h-8zM194 274h8v8h-8zM202 274h8v8h-8zM210 274h8v8h-8zM218 274h8v8h-8zM226 274h8v8h-8zM234 274h8v8h-8zM242 274h8v8h-8zM250 274h8v8h-8zM266 274h8v8h-8z"/></svg>
